# xmcd CD database file
#
# Track frame offsets:
#	150
#	13975
#	29925
#	40000
#	54150
#	69025
#	90725
#	105612
#	120987
#	140837
#	154675
#	168850
#	181175
#	193250
#
# Disc length: 2761 seconds
#
# Revision: 2
# Processed by: cddbd v1.5.1PL2 Copyright (c) Steve Scherf et al.
# Submitted via: CDex 1.51
#
DISCID=b60ac70e
DTITLE=Various Artist - JAZZ SWING?IT DON'T MEAN A THING
DYEAR=1991
DGENRE=Jazz
TTITLE0=???????????? - ???????????????
TTITLE1=????????? - ????????
TTITLE2=??????????? - ???????
TTITLE3=????????????? - ????
TTITLE4=?????????? - ?????????
TTITLE5=?????????? - ???????
TTITLE6=????????????? - ????
TTITLE7=?????????????? - ?????????????
TTITLE8=????????????? - ?????
TTITLE9=???????? - ?????
TTITLE10=?????????? - ???????????
TTITLE11=???????????? - A??????
TTITLE12=????????? - ??????
TTITLE13=??????????? - ???????
EXTD=YEAR: 1991
EXTT0=
EXTT1=
EXTT2=
EXTT3=
EXTT4=
EXTT5=
EXTT6=
EXTT7=
EXTT8=
EXTT9=
EXTT10=
EXTT11=
EXTT12=
EXTT13=
PLAYORDER=
